# xmcd
#
# Track frame offsets:
# 151
# 17210
# 34295
# 53476
# 72573
#
# Disc length: 1221 seconds
#
# Revision: 0
# Processed by: cddbd v1.5PL3 Copyright (c) Steve Scherf et al.
# Submitted via: MacMP3 Pro 5.0 (http://mp3.act2.co.jp/)
#
DISCID=4004c305
DTITLE=posyring - aisen
DYEAR=1900
DGENRE=
TTITLE0=yakusokunokinositade_main
TTITLE1=yakusokunokinositade_inst
TTITLE2=yakusokunokinositade_melody
TTITLE3=y
TTITLE4=y2
EXTD=
EXTT0=
EXTT1=
EXTT2=
EXTT3=
EXTT4=
PLAYORDER=
